<svg width="19" height="19" viewBox="0 0 19 19" fill="none" xmlns="http://www.w3.org/2000/svg">
<path d="M16.625 7.91665H15.0417V5.54165C15.0417 2.48087 12.5608 0 9.50003 0C6.43921 0 3.95837 2.48087 3.95837 5.54165V7.91665H2.37503C1.93781 7.91665 1.58337 8.27109 1.58337 8.70831V18.2083C1.58337 18.6456 1.93781 19 2.37503 19H16.625C17.0623 19 17.4167 18.6456 17.4167 18.2083V8.70835C17.4167 8.27112 17.0623 7.91665 16.625 7.91665ZM5.54168 5.54165C5.54168 3.35528 7.31366 1.58331 9.50003 1.58331C11.6864 1.58331 13.4584 3.35528 13.4584 5.54165V7.91665H5.54168V5.54165ZM15.8334 17.4167H3.16668V9.5H4.75003H14.25H15.8334V17.4167Z" fill="#1A202C"/>
<path d="M10.0879 10.2916H8.91229C7.92507 10.2916 7.12469 11.0916 7.12469 12.0784V14.0465C7.12469 15.0333 7.92507 15.8333 8.91229 15.8333H10.0879C11.0745 15.8333 11.8747 15.0331 11.8747 14.0465V12.0784C11.8747 11.0918 11.0746 10.2916 10.0879 10.2916ZM10.2914 14.0465C10.2914 14.1587 10.2001 14.25 10.0879 14.25H8.91229C8.79933 14.25 8.70804 14.1587 8.70804 14.0465V12.0784C8.70804 11.9662 8.79933 11.8749 8.91229 11.8749H10.0879C10.2001 11.8749 10.2914 11.9662 10.2914 12.0784V14.0465Z" fill="#1A202C"/>
</svg>
