<svg width="19" height="19" viewBox="0 0 19 19" fill="none" xmlns="http://www.w3.org/2000/svg">
<g clip-path="url(#clip0_1_15)">
<path d="M17.5369 2.37701H1.46308C0.657384 2.37701 0 3.0344 0 3.84009V15.1599C0 15.9656 0.657384 16.623 1.46308 16.623H17.5369C18.3426 16.623 19 15.9656 19 15.1599V3.84009C19 3.0344 18.3426 2.37701 17.5369 2.37701ZM17.3245 3.45929L9.60021 10.0652L1.87595 3.45929H17.3245ZM17.9177 15.1599C17.9177 15.3684 17.7454 15.5407 17.5369 15.5407H1.46308C1.25464 15.5407 1.08228 15.3684 1.08228 15.1599V4.20486L9.24747 11.1876C9.25148 11.1916 9.25949 11.1956 9.2635 11.1996C9.26751 11.2036 9.27553 11.2076 9.27954 11.2116C9.29156 11.2196 9.29958 11.2276 9.3116 11.2317C9.31561 11.2357 9.31962 11.2357 9.32363 11.2397C9.33966 11.2477 9.3557 11.2557 9.37173 11.2637C9.37574 11.2637 9.37975 11.2677 9.38376 11.2677C9.39578 11.2717 9.40781 11.2798 9.42384 11.2838C9.42785 11.2838 9.43587 11.2878 9.43987 11.2878C9.4519 11.2918 9.46392 11.2958 9.47595 11.2958C9.47996 11.2958 9.48798 11.2998 9.49198 11.2998C9.50401 11.3038 9.52004 11.3038 9.53207 11.3078C9.53608 11.3078 9.54008 11.3078 9.54409 11.3078C9.56013 11.3078 9.58017 11.3118 9.5962 11.3118C9.61224 11.3118 9.63228 11.3118 9.64831 11.3078C9.65232 11.3078 9.65633 11.3078 9.66034 11.3078C9.67236 11.3078 9.6884 11.3038 9.70042 11.2998C9.70443 11.2998 9.71245 11.2958 9.71646 11.2958C9.72848 11.2918 9.74051 11.2878 9.75253 11.2878C9.75654 11.2878 9.76456 11.2838 9.76857 11.2838C9.78059 11.2798 9.79262 11.2757 9.80865 11.2677C9.81266 11.2677 9.81667 11.2637 9.82067 11.2637C9.83671 11.2557 9.85274 11.2477 9.86878 11.2397C9.87278 11.2357 9.87679 11.2357 9.8808 11.2317C9.89283 11.2236 9.90084 11.2196 9.91287 11.2116C9.91688 11.2076 9.92489 11.2036 9.9289 11.1996C9.93291 11.1956 9.94093 11.1916 9.94494 11.1876L17.9177 4.37722V15.1599Z" fill="#881600"/>
</g>
<defs>
<clipPath id="clip0_1_15">
<rect width="19" height="19" fill="white"/>
</clipPath>
</defs>
</svg>
