<svg width="19" height="19" viewBox="0 0 19 19" fill="none" xmlns="http://www.w3.org/2000/svg">
<g clip-path="url(#clip0_1_67)">
<path d="M15.9178 18.2746H15.6871C13.0887 17.9919 10.5923 17.106 8.39693 15.6874C6.35746 14.3885 4.62587 12.6603 3.32288 10.6234C1.9011 8.4223 1.01501 5.9186 0.735712 3.31316C0.703784 3.0024 0.735311 2.68838 0.828399 2.39018C0.921477 2.09197 1.07417 1.81577 1.27721 1.57836C1.4747 1.33776 1.71845 1.13924 1.99406 0.994549C2.26965 0.849868 2.57148 0.761955 2.88166 0.736023H5.48888C6.05356 0.736595 6.59943 0.939055 7.0279 1.30684C7.45638 1.67463 7.73921 2.18351 7.82535 2.74158C7.92061 3.45844 8.09891 4.16178 8.35682 4.83738C8.51366 5.26194 8.54605 5.72247 8.45018 6.1648C8.35422 6.60713 8.13401 7.01287 7.81532 7.3343L7.20363 7.94598C8.1667 9.4664 9.45857 10.7515 10.9841 11.7064L11.5958 11.1047C11.9172 10.7861 12.323 10.5658 12.7653 10.4699C13.2077 10.374 13.6681 10.4064 14.0927 10.5632C14.7691 10.8187 15.4721 10.997 16.1885 11.0947C16.7561 11.18 17.273 11.4695 17.6423 11.909C18.0116 12.3485 18.2078 12.9075 18.1941 13.4813V15.888C18.1941 16.5139 17.9461 17.1144 17.5045 17.5579C17.0628 18.0014 16.4635 18.2519 15.8375 18.2545L15.9178 18.2746ZM5.48888 2.23016H3.09224C2.97456 2.23794 2.85969 2.2695 2.75455 2.32293C2.64941 2.37636 2.55621 2.45055 2.48055 2.54102C2.40692 2.62577 2.35119 2.72454 2.31672 2.83139C2.28226 2.93823 2.26976 3.05095 2.27999 3.16274C2.52315 5.52607 3.31648 7.79958 4.59641 9.80112C5.77632 11.653 7.34735 13.224 9.19916 14.4039C11.202 15.6973 13.478 16.5075 15.8476 16.7704C15.9708 16.7773 16.0942 16.7587 16.2098 16.7156C16.3254 16.6724 16.4309 16.6057 16.5194 16.5197C16.6791 16.3561 16.769 16.1368 16.7701 15.908V13.5114C16.7746 13.3004 16.7016 13.095 16.5649 12.9342C16.4281 12.7735 16.2371 12.6684 16.0281 12.639C15.1997 12.5276 14.3859 12.3258 13.6014 12.0373C13.4468 11.9796 13.2791 11.9667 13.1175 12.0005C12.956 12.0342 12.8074 12.113 12.6888 12.2278L11.686 13.2306C11.5686 13.3451 11.4173 13.4187 11.2548 13.4404C11.0921 13.4621 10.9269 13.4307 10.7835 13.351C8.64382 12.1418 6.87268 10.3742 5.65935 8.23679C5.5763 8.0944 5.54305 7.92834 5.56484 7.76488C5.58663 7.60153 5.66222 7.44999 5.77968 7.3343L6.78246 6.33152C6.89746 6.21522 6.97657 6.06829 7.01035 5.90827C7.04414 5.74825 7.03117 5.58188 6.97299 5.42902C6.68338 4.64483 6.4816 3.83096 6.37132 3.0023C6.34644 2.78697 6.2423 2.58861 6.07916 2.44588C5.91603 2.30313 5.70561 2.22624 5.48888 2.23016Z" fill="#1A202C"/>
</g>
<defs>
<clipPath id="clip0_1_67">
<rect width="19" height="19" fill="white"/>
</clipPath>
</defs>
</svg>
