<svg width="19" height="19" viewBox="0 0 19 19" fill="none" xmlns="http://www.w3.org/2000/svg">
<path fill-rule="evenodd" clip-rule="evenodd" d="M4.75 6.33331C4.75 3.70996 6.87665 1.58331 9.5 1.58331C12.1233 1.58331 14.25 3.70996 14.25 6.33331C14.25 8.95666 12.1233 11.0833 9.5 11.0833C6.87665 11.0833 4.75 8.95666 4.75 6.33331Z" fill="#1A202C"/>
<path fill-rule="evenodd" clip-rule="evenodd" d="M4.29955 13.3812C5.58596 12.8419 7.30184 12.6667 9.50006 12.6667C11.6938 12.6667 13.407 12.8412 14.6923 13.3777C16.0718 13.9535 16.9186 14.9319 17.37 16.3548C17.5377 16.8837 17.1411 17.4167 16.5928 17.4167H2.40244C1.85637 17.4167 1.4621 16.886 1.62844 16.3601C2.07848 14.9373 2.92225 13.9585 4.29955 13.3812Z" fill="#1A202C"/>
</svg>
