<svg width="44" height="44" viewBox="0 0 44 44" fill="none" xmlns="http://www.w3.org/2000/svg">
<circle cx="22" cy="22" r="22" fill="white"/>
<path fill-rule="evenodd" clip-rule="evenodd" d="M44 22C44 9.84973 34.1503 0 22 0C9.84984 0 -3.8147e-06 9.84973 -3.8147e-06 22C-3.8147e-06 34.1502 9.84984 44 22 44C34.1503 44 44 34.1502 44 22ZM22.0002 8.8C26.8603 8.8 30.8002 12.7399 30.8002 17.6C30.8002 22.46 26.8603 26.4 22.0002 26.4C17.1402 26.4 13.2002 22.46 13.2002 17.6C13.2002 12.7399 17.1402 8.8 22.0002 8.8ZM10.7547 30.7943C9.08754 31.8679 9.16894 34.208 10.6872 35.4834C13.7463 38.0525 17.6922 39.6 21.9998 39.6C26.2788 39.6 30.2013 38.073 33.2518 35.534C34.7835 34.2591 34.8647 31.907 33.1903 30.8264C32.669 30.49 32.1014 30.1952 31.4853 29.9413C29.0066 28.9194 25.8408 28.6 22 28.6C18.1399 28.6 14.956 28.899 12.4709 29.9099C11.8501 30.1624 11.2785 30.457 10.7547 30.7943Z" fill="#3563E9"/>
</svg>
